<svg width="115" height="42" viewBox="0 0 115 42" fill="none" xmlns="http://www.w3.org/2000/svg">
<g clip-path="url(#clip0)">
<path d="M59.3667 18.5444C59.3667 19.6518 59.1741 21.0963 57.4408 21.0963C56.9593 21.0963 56.2852 21.0481 55.8037 21L55.6593 20.9518V14.5481L55.8037 14.5C56.1889 14.4518 56.8148 14.4518 57.4408 14.4518C59.1741 14.4518 59.3667 15.8963 59.3667 17.0037V18.5444ZM62.2556 16.9555C62.2556 13.7778 60.5704 12.0444 57.4408 12.0444C55.563 12.0444 53.9259 12.4296 53.3 12.5741C52.7704 12.6704 52.7704 12.7667 52.7704 13.0074V26.8741C52.7704 26.9704 52.9148 27.1148 53.0593 27.1148H55.4667C55.6111 27.1148 55.7074 26.9704 55.7074 26.8741V23.263L55.9 23.3111C56.5259 23.3592 57.1519 23.4555 57.4889 23.4555C60.6185 23.4555 62.3037 21.6741 62.3037 18.5444V16.9555H62.2556Z" fill="#29323C"/>
<path d="M50.7 23.0223V21.4815C50.7 21.4334 50.7 21.289 50.4112 21.289H49.4482C48.726 21.289 48.6297 21.0001 48.6297 20.2297V14.3075H50.4112C50.5556 14.3075 50.6519 14.163 50.6519 14.0186V12.4297C50.6519 12.2853 50.5556 12.189 50.4112 12.189H48.6297V9.92599C48.6297 9.82969 48.5815 9.7334 48.4371 9.7334H48.3889L45.9815 10.1667C45.8371 10.1667 45.6926 10.263 45.6926 10.4075V12.189H43.9593C43.8149 12.189 43.6704 12.3334 43.6704 12.4778V13.7778C43.6704 13.9704 43.8149 14.0667 43.9593 14.0667L45.6445 14.3556V20.2297C45.6445 22.9741 46.7037 23.5038 48.8223 23.5038C49.4 23.5038 49.7852 23.4556 50.363 23.3112C50.6037 23.2149 50.7 23.1667 50.7 23.0223Z" fill="#29323C"/>
<path d="M42.1778 22.8296V21.0481C42.1778 20.9518 42.0334 20.8555 41.9371 20.8555H41.8889C41.1667 20.9037 40.5889 21 39.4815 21C38.663 21 37.7 20.5667 37.7 18.5926V16.9074C37.7 14.8852 38.663 14.4518 39.4815 14.4518C40.6371 14.4518 41.1667 14.5 41.8889 14.5963H41.9371C42.0334 14.5963 42.1778 14.5481 42.1778 14.4037V12.6222C42.1778 12.4296 42.1297 12.3815 41.8889 12.3333C41.3112 12.1889 40.4445 12.0444 39.2889 12.0444C36.4963 12.0444 34.8112 13.8741 34.8112 16.9074V18.5926C34.8112 21.6259 36.4963 23.4555 39.2889 23.4555C40.4445 23.4555 41.3112 23.2629 41.8889 23.1667C42.1297 23.0704 42.1778 23.0222 42.1778 22.8296Z" fill="#29323C"/>
<path d="M78.4333 18.4481C78.4333 20.5667 77.3741 21 76.5074 21C75.2555 21 74.5815 20.0852 74.5815 18.4481V17.0518C74.5815 15.3667 75.2555 14.5 76.5074 14.5C77.3741 14.5 78.4333 14.9333 78.4333 17.0518V18.4481ZM81.3222 17.0518C81.3222 13.8741 79.5889 12.0444 76.5555 12.0444C73.5222 12.0444 71.7407 13.9222 71.7407 17.0518V18.4481C71.7407 21.5778 73.5222 23.4555 76.5555 23.4555C79.5889 23.4555 81.3222 21.6259 81.3222 18.4481V17.0518Z" fill="#29323C"/>
<path d="M70.2481 12.0444C69.3333 12.0444 68.3703 12.3815 67.6962 12.9592L67.4555 13.1518V12.4296C67.4555 12.2852 67.3592 12.1889 67.2148 12.1889H64.8555C64.711 12.1889 64.6147 12.2852 64.6147 12.4296V22.9741C64.6147 23.1185 64.7592 23.263 64.9036 23.263H67.311C67.4073 23.263 67.5518 23.1185 67.5518 22.9741V15.1741L67.5999 15.1259C68.5147 14.6444 69.3333 14.4518 70.2481 14.4518H70.3925C70.4888 14.4518 70.5851 14.3074 70.5851 14.2111V12.3333C70.4888 12.1889 70.3925 12.0444 70.2481 12.0444Z" fill="#29323C"/>
<path d="M16.4667 19.6521L18.5371 22.9261C18.7297 23.215 18.8259 23.3113 18.9704 23.3113H21.9556C22.0037 23.3113 22.1 23.2632 22.1 23.1669C22.1 23.1187 22.0519 23.1187 22.0519 23.1187L18.3926 17.7261L21.7148 12.478C21.7148 12.4298 21.7148 12.4298 21.7148 12.3817C21.7148 12.3335 21.7148 12.2854 21.6667 12.2854H19.0185C18.9222 12.2854 18.8259 12.3335 18.6334 12.6224L16.9 15.5113L14.9741 12.6224C14.8297 12.3817 14.7334 12.2854 14.5889 12.2854H11.6519C11.6037 12.2854 11.5074 12.3335 11.5074 12.4298C11.5074 12.478 11.5074 12.478 11.5074 12.478L14.9259 17.5817L11.4111 23.1187C11.4111 23.1669 11.4111 23.1669 11.4111 23.215C11.4111 23.3113 11.4593 23.3113 11.4593 23.3113H14.1074C14.2519 23.3113 14.3482 23.2632 14.5408 22.9743L16.4667 19.6521Z" fill="#29323C"/>
<path d="M29.563 20.8074L29.4667 20.8555C28.8889 21.1444 28.3112 21.2889 27.7815 21.2889C26.9149 21.2889 26.3852 21.0963 26.3852 20.1815V19.9889C26.3852 18.8333 26.9149 18.4 28.263 18.4H29.563V20.8074ZM27.926 12.0444C26.6741 12.0444 25.326 12.2852 24.5075 12.4778C24.4112 12.5259 24.2186 12.5741 24.2186 12.7667V14.3555C24.2186 14.5 24.2667 14.5481 24.4593 14.5481H24.5075C25.0852 14.5 26.5297 14.4037 27.7815 14.4037C28.6 14.4037 29.4186 14.5963 29.4186 15.9444V16.763H28.2149C24.9408 16.763 23.4963 17.7259 23.4963 19.9889V20.1815C23.4963 22.9741 25.5186 23.4555 26.7223 23.4555C27.7815 23.4555 28.5519 23.1667 29.3704 22.5889L29.6112 22.3963V22.9741C29.6112 23.1185 29.7074 23.2629 29.8519 23.2629H32.0667C32.2112 23.2629 32.3074 23.1185 32.3074 22.9741V15.9444C32.4037 13.3444 30.9593 12.0444 27.926 12.0444Z" fill="#29323C"/>
<path d="M6.98152 16.9074H3.08152V16.6667C3.08152 15.2222 3.80374 14.3074 5.05559 14.3074C6.25929 14.3074 6.98152 15.1741 6.98152 16.6667V16.9074ZM5.05559 12.0444C2.02226 12.0444 0.192627 13.9704 0.192627 17.1V18.4963C0.192627 23.0704 3.90003 23.4555 5.00744 23.4555C6.78892 23.4555 7.84818 23.2629 9.00374 22.9741C9.29263 22.9259 9.29263 22.8296 9.29263 22.5889V21.0481C9.29263 21 9.29263 20.8555 9.05189 20.8555H9.00374C8.18522 20.9518 6.40374 21.0481 5.20003 21.0481C3.80374 21.0481 3.03337 20.2296 3.03337 18.737V18.5926H9.48522C9.72596 18.5926 9.77411 18.4 9.77411 18.2555V17.1C9.82226 13.9704 8.04077 12.0444 5.05559 12.0444Z" fill="#29323C"/>
<path d="M13.8185 33.037C13.6741 33.037 13.5296 33.0851 13 33.0851C12.4704 33.0851 12.0852 32.9407 12.0852 32.2666V30.8222C12.0852 30.1481 12.5185 30.0037 13 30.0037C13.4815 30.0037 13.6741 30.0518 13.8185 30.0518C13.8667 30.1 13.8667 30.1 13.8667 30.1481V30.3888C13.8667 30.437 13.8185 30.4851 13.8185 30.4851H13C12.7593 30.4851 12.663 30.5333 12.663 30.8222V31.2555H13.7704C13.8185 31.2555 13.8667 31.3037 13.8667 31.3037V31.5925C13.8667 31.6407 13.8185 31.6407 13.7704 31.6407H12.663V32.1703C12.663 32.4592 12.7593 32.5074 13 32.5074H13.8185C13.8667 32.5074 13.8667 32.5555 13.8667 32.6037V32.8444C13.8667 32.9888 13.8667 33.037 13.8185 33.037Z" fill="#29323C"/>
<path d="M17.4297 33.0851H16.9482C16.9001 33.0851 16.9001 33.037 16.8519 32.9888L16.2741 32.0259L15.6964 32.9888C15.6964 33.037 15.6482 33.0851 15.6001 33.0851H15.1667C15.1186 33.0851 15.1186 33.037 15.1186 33.037V32.9888L15.9852 31.5444L15.0704 30.1V30.0518C15.0704 30.0037 15.1186 30.0037 15.1186 30.0037H15.6001C15.6482 30.0037 15.6482 30.0518 15.6964 30.0518L16.2741 30.9666L16.8519 30.0518C16.9001 30.0037 16.9001 30.0037 16.9482 30.0037H17.3815C17.4297 30.0037 17.4297 30.0037 17.4297 30.0518V30.1L16.563 31.5444L17.4778 32.9888V33.037C17.526 33.037 17.4778 33.0851 17.4297 33.0851Z" fill="#29323C"/>
<path d="M19.2111 33.0853H18.8259C18.7778 33.0853 18.7296 33.0372 18.7296 32.989V30.1002C18.7296 30.052 18.7778 30.052 18.8259 30.052H19.2111C19.2592 30.052 19.3074 30.1002 19.3074 30.1002V32.989C19.3074 32.989 19.3074 33.0853 19.2111 33.0853Z" fill="#29323C"/>
<path d="M22.6296 30.4853H21.9074V32.989C21.9074 33.0371 21.8592 33.0853 21.8111 33.0853H21.4259C21.3777 33.0853 21.3296 33.0371 21.3296 32.989V30.4853H20.6555C20.6074 30.4853 20.5592 30.4853 20.5592 30.4371V30.1482C20.5592 30.1001 20.6074 30.1001 20.6555 30.1001H22.6296C22.6777 30.1001 22.6777 30.1482 22.6777 30.1482L22.6296 30.4853C22.7259 30.4853 22.6777 30.4853 22.6296 30.4853Z" fill="#29323C"/>
<path d="M25.037 33.0853C24.3629 33.0853 23.9296 32.7964 23.9296 31.9298V30.1002C23.9296 30.052 23.9777 30.052 23.9777 30.052H24.411C24.4592 30.052 24.4592 30.1002 24.4592 30.1002V31.9298C24.4592 32.3631 24.6036 32.6038 25.037 32.6038C25.4703 32.6038 25.6148 32.3631 25.6148 31.9298V30.1002C25.6148 30.052 25.6629 30.052 25.711 30.052H26.1444C26.1925 30.052 26.1925 30.1002 26.1925 30.1002V31.9298C26.1925 32.7964 25.711 33.0853 25.037 33.0853Z" fill="#29323C"/>
<path d="M28.3593 33.0852C28.0704 33.0852 27.8296 33.0852 27.6371 33.037C27.5889 33.037 27.5889 32.9889 27.5889 32.9889V32.7C27.5889 32.6519 27.6371 32.6519 27.6371 32.6519C27.8296 32.7 28.2148 32.7 28.3593 32.7C28.7445 32.7 28.8408 32.6037 28.8408 32.363C28.8408 32.1704 28.7926 32.1222 28.5037 31.9296L27.9259 31.4963C27.5408 31.2556 27.4445 31.0148 27.4445 30.7259C27.4445 30.2926 27.7333 29.9556 28.5037 29.9556C28.7926 29.9556 29.1296 30.0037 29.2741 30.0037C29.3222 30.0037 29.3704 30.0519 29.3704 30.0519V30.3408C29.3704 30.3889 29.3222 30.3889 29.3222 30.3889H29.2741C29.0333 30.3408 28.7445 30.3408 28.4556 30.3408C28.1667 30.3408 28.0222 30.437 28.0222 30.6296C28.0222 30.7741 28.0704 30.8222 28.3111 31.0148L28.8408 31.3037C29.2741 31.5445 29.4185 31.7852 29.4185 32.1222C29.4185 32.6519 29.1778 33.0852 28.3593 33.0852Z" fill="#29323C"/>
<path d="M33.6555 30.5333C33.6555 30.4851 33.6555 30.4851 33.6555 30.5333C33.5592 30.4851 33.5592 30.4851 33.5592 30.5333L33.2703 31.7851H33.9926L33.6555 30.5333ZM34.7629 33.0851H34.3296C34.2815 33.0851 34.2815 33.037 34.2815 32.9888L34.0889 32.2185H33.1741L32.9815 32.9888C32.9815 33.037 32.9333 33.0851 32.9333 33.0851H32.5C32.4518 33.0851 32.4037 33.037 32.4037 32.9888H32.4518L33.1259 30.437C33.2222 30.0518 33.5111 30.0037 33.7037 30.0037C33.8963 30.0037 34.1852 30.0518 34.2815 30.437L34.9555 32.9888C34.8592 33.037 34.8111 33.0851 34.7629 33.0851Z" fill="#29323C"/>
<path d="M37.7963 33.037C37.7482 33.037 37.4593 33.0851 37.1222 33.0851C36.6407 33.0851 35.9667 32.8444 35.9667 31.8333V31.2555C35.9667 30.1963 36.6407 30.0037 37.1222 30.0037C37.4111 30.0037 37.7 30.0518 37.7963 30.0518C37.8445 30.0518 37.8926 30.1 37.8926 30.1V30.3888C37.8926 30.437 37.8445 30.4851 37.7963 30.4851C37.6519 30.437 37.363 30.437 37.1704 30.437C36.8333 30.437 36.5445 30.6296 36.5445 31.2074V31.7851C36.5445 32.3629 36.8333 32.5555 37.1704 32.5555C37.363 32.5555 37.6519 32.5555 37.7963 32.5074C37.8445 32.5074 37.8926 32.5555 37.8926 32.6037V32.8925C37.8926 32.9888 37.8445 32.9888 37.7963 33.037Z" fill="#29323C"/>
<path d="M41.0703 30.4853H40.3481V32.989C40.3481 33.0371 40.2999 33.0853 40.2999 33.0853H39.8666C39.8185 33.0853 39.8185 33.0371 39.8185 32.989V30.4853H39.0962C39.0481 30.4853 39.0481 30.4853 39.0481 30.4371V30.1482C39.0481 30.1001 39.0962 30.1001 39.0962 30.1001H41.1185C41.1666 30.1001 41.1666 30.1482 41.1666 30.1482V30.4371C41.1666 30.4853 41.1185 30.4853 41.0703 30.4853Z" fill="#29323C"/>
<path d="M43.4778 30.5333C43.4778 30.4851 43.4297 30.4851 43.4778 30.5333C43.3815 30.4851 43.3815 30.4851 43.3815 30.5333L43.0926 31.7851H43.7667L43.4778 30.5333ZM44.5852 33.0851H44.1519C44.1037 33.0851 44.1037 33.037 44.1037 32.9888L43.9111 32.2185H42.9482L42.7556 32.9888C42.7556 33.037 42.7074 33.0851 42.7074 33.0851H42.2741C42.226 33.0851 42.226 33.037 42.226 32.9888L42.9 30.437C42.9482 30.0518 43.2852 30.0037 43.4778 30.0037C43.6704 30.0037 43.9593 30.0518 44.0556 30.437L44.7297 32.9888C44.6334 33.037 44.6334 33.0851 44.5852 33.0851Z" fill="#29323C"/>
<path d="M49.2556 30.9185C49.2556 30.5815 49.063 30.437 48.6297 30.437C48.5815 30.437 48.3408 30.4852 48.2926 30.4852V31.4482C48.3408 31.4482 48.5815 31.4482 48.6297 31.4482C49.1111 31.4482 49.2556 31.3037 49.2556 30.9185ZM48.6297 31.9296C48.5334 31.9296 48.3408 31.8815 48.2926 31.8815V32.9408C48.2926 32.9889 48.2445 33.037 48.1963 33.037H47.763C47.7148 33.037 47.7148 32.9889 47.7148 32.9408V30.1482C47.7148 30.0519 47.763 30.0519 47.8593 30.0037C48.0519 29.9556 48.3408 29.9556 48.6778 29.9556C49.3037 29.9556 49.8334 30.1482 49.8334 30.8704V30.9185C49.8334 31.6889 49.2556 31.9296 48.6297 31.9296Z" fill="#29323C"/>
<path d="M52.674 30.8704C52.674 30.5815 52.4814 30.437 52.0481 30.437C51.9518 30.437 51.7592 30.437 51.6629 30.437V31.3519C51.7111 31.3519 51.9518 31.3519 52.0481 31.3519C52.4333 31.4 52.674 31.3037 52.674 30.8704ZM53.2518 33.0852H52.7703C52.7222 33.0852 52.7222 33.037 52.674 32.9889L52.0963 31.9296H52.0481C51.9518 31.9296 51.7592 31.8815 51.6629 31.8815V32.9889C51.6629 33.037 51.6148 33.0852 51.6148 33.0852H51.1815C51.1333 33.0852 51.1333 33.037 51.1333 32.9889V30.1482C51.1333 30.0519 51.1815 30.0519 51.2777 30.0037C51.4703 29.9556 51.7592 29.9556 52.0963 29.9556C52.7222 29.9556 53.2518 30.1482 53.2518 30.8704V30.9185C53.2518 31.3519 53.0592 31.6408 52.674 31.7852L53.3 32.9408C53.3481 32.9408 53.3481 32.9889 53.3481 32.9889C53.3 33.037 53.3 33.0852 53.2518 33.0852Z" fill="#29323C"/>
<path d="M56.2851 31.2556C56.2851 30.6778 56.0926 30.437 55.7074 30.437C55.3222 30.437 55.1296 30.6778 55.1296 31.2556V31.8333C55.1296 32.363 55.3222 32.6037 55.7074 32.6037C56.1407 32.6037 56.2851 32.363 56.2851 31.8333V31.2556ZM55.6592 33.0852C54.9851 33.0852 54.5037 32.7482 54.5037 31.8333V31.2556C54.5037 30.3408 55.0333 29.9556 55.6592 29.9556C56.3333 29.9556 56.8148 30.3408 56.8148 31.2556V31.8333C56.8629 32.7482 56.3814 33.0852 55.6592 33.0852Z" fill="#29323C"/>
<path d="M59.8 32.1222C59.8 31.9296 59.6556 31.6888 59.2704 31.6888H58.7408V32.6037C58.8371 32.6037 59.0296 32.6037 59.0778 32.6037C59.6074 32.6037 59.7519 32.4592 59.8 32.1222ZM59.7519 30.8703C59.7519 30.5814 59.5593 30.437 59.0778 30.437C58.9815 30.437 58.8852 30.437 58.7889 30.4851V31.3037H59.3185C59.6556 31.3037 59.7519 31.1111 59.7519 30.8703ZM59.1259 33.0851C58.7889 33.0851 58.5482 33.0851 58.4519 33.037C58.3074 32.9888 58.2593 32.9888 58.2593 32.8444V30.2444C58.2593 30.1 58.3074 30.0518 58.4519 30.0518C58.5482 30.0037 58.8371 30.0037 59.1259 30.0037C59.8482 30.0037 60.3778 30.1963 60.3778 30.8222V30.8703C60.3778 31.1592 60.2815 31.4 60.0407 31.4963C60.2815 31.5925 60.4259 31.7851 60.4259 32.1222V32.1703C60.3296 32.8925 59.8482 33.0851 59.1259 33.0851Z" fill="#29323C"/>
<path d="M62.7851 30.5333C62.737 30.4851 62.737 30.4851 62.737 30.4851C62.6888 30.4851 62.6888 30.4851 62.6888 30.5333L62.3999 31.7851H63.1222L62.7851 30.5333ZM63.8925 33.0851H63.4592C63.411 33.0851 63.411 33.037 63.411 32.9888L63.2185 32.2185H62.3036L62.111 32.9888C62.111 33.037 62.0629 33.0851 62.0629 33.0851H61.6296C61.5814 33.0851 61.5814 33.037 61.5814 32.9888L62.2555 30.437C62.3518 30.0518 62.6888 30.0037 62.8333 30.0037C63.0259 30.0037 63.2666 30.0518 63.411 30.437L64.0851 32.9888C63.9407 33.037 63.9407 33.0851 63.8925 33.0851Z" fill="#29323C"/>
<path d="M67.0222 30.4853H66.3V32.989C66.3 33.0371 66.2519 33.0853 66.2519 33.0853H65.8185C65.7704 33.0853 65.7704 33.0371 65.7704 32.989V30.4853H65.0482C65 30.4853 65 30.4853 65 30.4371V30.1482C65 30.1001 65.0482 30.1001 65.0482 30.1001H67.0704C67.1185 30.1001 67.1185 30.1482 67.1185 30.1482V30.4371C67.1185 30.4853 67.0704 30.4853 67.0222 30.4853Z" fill="#29323C"/>
<path d="M98.0296 17.1481C99.1852 18.8333 101.448 19.1703 103.085 18.0629C104.722 16.9074 105.107 14.6444 103.952 13.0074C102.796 11.3703 100.533 10.9852 98.9444 12.1407C97.2592 13.2963 96.8741 15.5592 98.0296 17.1481Z" fill="#0098CC"/>
<path d="M114.159 18.8814V18.6889C114.111 16.9555 113.341 15.4148 112.378 14.5963C111.559 13.9222 110.693 13.6333 109.97 13.6333C109.152 13.6333 108.381 13.9703 107.852 14.5963C105.83 17.0037 107.611 19.4592 107.9 20.037C108.189 20.4703 108.044 21.5296 107.515 22.1555C105.348 24.8037 101.111 25.237 99.0889 25.3333C98.4148 25.3333 98.2703 25.3814 98.0296 25.6703C97.7889 25.9592 97.837 26.2481 98.2222 26.5851C98.5592 26.874 99.137 26.874 99.5222 26.9703C100.967 27.1629 108.43 27.6926 112.667 22.6852C113.726 21.4814 114.159 20.1333 114.159 18.8814Z" fill="url(#paint0_linear)"/>
<path d="M92.7815 6.89258C92.6371 6.89258 92.4926 6.94073 92.3482 6.98887C91.9148 7.13332 91.6741 7.66295 91.3371 7.90369C90.4222 9.05925 86.2815 15.2704 88.5445 21.4333C89.8445 25.0926 93.6 25.9592 95.6704 25.1889C97.7408 24.3704 98.463 22.6852 97.9334 21.2407C96.9704 18.5926 94.4185 18.5926 93.4074 18.5926C93.3111 18.5926 93.2148 18.5926 93.1667 18.5926C92.6371 18.5926 91.8185 17.9667 91.5297 17.1963C90.3741 13.9704 92.1074 10.0704 93.0222 8.33702C93.3111 7.75924 93.3111 7.6148 93.2148 7.27776C93.1667 7.03702 93.0222 6.89258 92.7815 6.89258Z" fill="url(#paint1_linear)"/>
<path d="M100.437 1.06665C97.2593 1.1148 95.1889 3.57035 94.9 5.44813C94.5148 7.66295 95.6222 9.10739 97.2111 9.39628C100.244 9.92591 101.496 7.18147 101.833 6.60369C102.122 6.12221 103.085 5.73702 103.856 5.88146C107.226 6.45924 109.73 9.87776 110.837 11.6111C111.174 12.1889 111.27 12.237 111.656 12.2852C111.993 12.3333 112.233 12.1407 112.33 11.6592C112.378 11.2259 112.137 10.7444 112.041 10.3592C111.511 9.01109 108.189 2.27035 101.737 1.16295C101.4 1.1148 101.063 1.06665 100.678 1.06665C100.678 1.06665 100.437 1.06665 100.437 1.06665Z" fill="url(#paint2_linear)"/>
</g>
<defs>
<linearGradient id="paint0_linear" x1="105.036" y1="25.8837" x2="108.449" y2="15.3647" gradientUnits="userSpaceOnUse">
<stop stop-color="#71BDE9"/>
<stop offset="0.102" stop-color="#71BDE9"/>
<stop offset="0.6314" stop-color="#0098CC"/>
<stop offset="1" stop-color="#0098CC"/>
</linearGradient>
<linearGradient id="paint1_linear" x1="89.1398" y1="13.5302" x2="96.5158" y2="19.2878" gradientUnits="userSpaceOnUse">
<stop stop-color="#71BDE9"/>
<stop offset="0.102" stop-color="#71BDE9"/>
<stop offset="0.6314" stop-color="#0098CC"/>
<stop offset="1" stop-color="#0098CC"/>
</linearGradient>
<linearGradient id="paint2_linear" x1="110.053" y1="5.57146" x2="97.399" y2="8.85934" gradientUnits="userSpaceOnUse">
<stop stop-color="#71BDE9"/>
<stop offset="0.102" stop-color="#71BDE9"/>
<stop offset="0.6314" stop-color="#0098CC"/>
<stop offset="1" stop-color="#0098CC"/>
</linearGradient>
<clipPath id="clip0">
<rect width="114.4" height="40.4444" fill="white" transform="translate(0 0.777832)"/>
</clipPath>
</defs>
</svg>
