<svg width="34" height="34" viewBox="0 0 34 34" fill="none" xmlns="http://www.w3.org/2000/svg">
<path d="M17 32.75C25.6985 32.75 32.75 25.6985 32.75 17C32.75 8.30151 25.6985 1.25 17 1.25C8.30151 1.25 1.25 8.30151 1.25 17C1.25 25.6985 8.30151 32.75 17 32.75Z" stroke="#BE2F21" stroke-width="2" stroke-linecap="round" stroke-linejoin="round"/>
<path d="M2.29999 11.75H31.7" stroke="#BE2F21" stroke-width="2" stroke-linecap="round" stroke-linejoin="round"/>
<path d="M2.29999 22.25H31.7" stroke="#BE2F21" stroke-width="2" stroke-linecap="round" stroke-linejoin="round"/>
<path d="M16.125 1.25C13.1768 5.97432 11.6138 11.4313 11.6138 17C11.6138 22.5687 13.1768 28.0257 16.125 32.75" stroke="#BE2F21" stroke-width="2" stroke-linecap="round" stroke-linejoin="round"/>
<path d="M17.875 1.25C20.8232 5.97432 22.3861 11.4313 22.3861 17C22.3861 22.5687 20.8232 28.0257 17.875 32.75" stroke="#BE2F21" stroke-width="2" stroke-linecap="round" stroke-linejoin="round"/>
</svg>
