<svg width="32" height="38" viewBox="0 0 32 38" fill="none" xmlns="http://www.w3.org/2000/svg">
<path d="M26.9513 0H6.61584C3.81936 0 1.59531 2.25392 1.59531 5.02941V6.89216H0V9.5H1.59531V14.0637H0V16.6716H1.59531V21.3284H0V23.9363H1.59531V28.5H0V31.1078H1.59531V32.9706C1.59531 35.7461 3.81936 38 6.61584 38H26.9513C29.7478 38 32 35.7461 32 32.9706V5.02941C32 2.25392 29.7478 0 26.9513 0ZM22.3343 35.3922H6.61584C5.2739 35.3922 4.22287 34.3025 4.22287 32.9706V31.1078H5.72434V28.5H4.22287V23.9363H5.72434V21.3284H4.22287V16.6716H5.72434V14.0637H4.22287V9.5H5.72434V6.89216H4.22287V5.02941C4.22287 3.69755 5.2739 2.60784 6.61584 2.60784H22.3343V35.3922ZM29.3724 32.9706C29.3724 34.3025 28.3026 35.3922 26.9513 35.3922H24.9619V2.60784H26.9513C28.2933 2.60784 29.3724 3.69755 29.3724 5.02941V32.9706Z" fill="#BE2F21"/>
</svg>
