<svg width="35" height="35" viewBox="0 0 35 35" fill="none" xmlns="http://www.w3.org/2000/svg">
<path d="M17.5 0C7.85444 0 0 7.85448 0 17.5C0 27.1455 7.85444 35 17.5 35C27.1456 35 35 27.1455 35 17.5C35 7.85448 27.1456 0 17.5 0ZM17.5 3.28125C25.3722 3.28125 31.7188 9.62783 31.7188 17.5C31.7188 25.3721 25.3722 31.7188 17.5 31.7188C9.62779 31.7188 3.28125 25.3721 3.28125 17.5C3.28125 9.62783 9.62779 3.28125 17.5 3.28125ZM17.5 6.01562C16.5939 6.01562 15.8594 6.75019 15.8594 7.65625V17.5C15.8594 18.1068 16.19 18.6346 16.6797 18.9185L24.2505 23.2935C25.0351 23.7465 26.0533 23.48 26.5064 22.6953C26.9594 21.9107 26.6757 20.9095 25.8911 20.4565L19.1406 16.56V7.65625C19.1406 6.75019 18.4061 6.01562 17.5 6.01562Z" fill="#BE2F21"/>
</svg>
